<svg xmlns="http://www.w3.org/2000/svg" width="48" height="48" viewBox="0 0 48 48"><defs><style>.a{fill:#898989;}</style></defs><title>icon-book</title><path class="a" d="M36,8H16a6,6,0,0,0-6,6V34a6,6,0,0,0,6,6H36a2,2,0,0,0,2-2V10A2,2,0,0,0,36,8ZM19.5,14h11A1.5,1.5,0,0,1,32,15.5h0A1.5,1.5,0,0,1,30.5,17h-11A1.5,1.5,0,0,1,18,15.5h0A1.5,1.5,0,0,1,19.5,14Zm0,6h11A1.5,1.5,0,0,1,32,21.5h0A1.5,1.5,0,0,1,30.5,23h-11A1.5,1.5,0,0,1,18,21.5h0A1.5,1.5,0,0,1,19.5,20ZM16,32H32a2,2,0,0,1,2,2h0a2,2,0,0,1-2,2H16a2,2,0,0,1-2-2h0A2,2,0,0,1,16,32Z"/></svg>