<svg xmlns="http://www.w3.org/2000/svg" width="48" height="48" viewBox="0 0 48 48"><defs><style>.a{fill:#898989;}</style></defs><title>icon-cut</title><path class="a" d="M7,14H7a7,7,0,0,0,7,7h0a7,7,0,0,0,7-7h0a7,7,0,0,0-7-7h0A7,7,0,0,0,7,14Zm4,0h0a3,3,0,0,1,3-3h0a3,3,0,0,1,3,3h0a3,3,0,0,1-3,3h0A3,3,0,0,1,11,14Z"/><path class="a" d="M7,34H7a7,7,0,0,0,7,7h0a7,7,0,0,0,7-7h0a7,7,0,0,0-7-7h0A7,7,0,0,0,7,34Zm4,0h0a3,3,0,0,1,3-3h0a3,3,0,0,1,3,3h0a3,3,0,0,1-3,3h0A3,3,0,0,1,11,34Z"/><path class="a" d="M40.59,10H36.66a4,4,0,0,0-2.83,1.17l-8.12,8.12a1,1,0,0,1-1.42,0l-3.58-3.58a1,1,0,0,0-1.42,0l-2.58,2.58a1,1,0,0,0,0,1.42l3.58,3.58a1,1,0,0,1,0,1.42l-3.58,3.58a1,1,0,0,0,0,1.42l2.58,2.58a1,1,0,0,0,1.42,0l3.58-3.58a1,1,0,0,1,1.42,0l8.12,8.12A4,4,0,0,0,36.66,38h3.93a1,1,0,0,0,.7-1.71L29.71,24.71a1,1,0,0,1,0-1.42L41.29,11.71A1,1,0,0,0,40.59,10Z"/></svg>