<svg xmlns="http://www.w3.org/2000/svg" width="48" height="48" viewBox="0 0 48 48"><defs><style>.a{fill:#898989;}</style></defs><title>icon-paste</title><path class="a" d="M10.17,40.17,7.83,37.83a4,4,0,0,1,0-5.66L9,31l8,8-1.17,1.17A4,4,0,0,1,10.17,40.17Z"/><path class="a" d="M26.63,7,14.1,24.86a2.75,2.75,0,0,1-.22.26l-2.47,2.47a2,2,0,0,0,0,2.82l6.18,6.18a2,2,0,0,0,2.82,0l2.47-2.47a2.75,2.75,0,0,1,.26-.22L41.05,21.37a2,2,0,0,0,.26-3.06L29.69,6.69A2,2,0,0,0,26.63,7Z"/><rect class="a" x="24" y="39" width="20" height="3" rx="1.5"/></svg>