<svg xmlns="http://www.w3.org/2000/svg" width="48" height="48" viewBox="0 0 48 48"><defs><style>.a{fill:#898989;}</style></defs><title>icon-save</title><path class="a" d="M28,19V10a2,2,0,0,0-2-2H22a2,2,0,0,0-2,2v9a1,1,0,0,1-1,1H16.83a2,2,0,0,0-1.42,3.41l7.18,7.18a2,2,0,0,0,2.82,0l7.18-7.18A2,2,0,0,0,31.17,20H29A1,1,0,0,1,28,19Z"/><path class="a" d="M32,30h0a2,2,0,0,0,2,2h3a1,1,0,0,1,1,1v2a1,1,0,0,1-1,1H11a1,1,0,0,1-1-1V33a1,1,0,0,1,1-1h3a2,2,0,0,0,2-2h0a2,2,0,0,0-2-2H8a2,2,0,0,0-2,2v8a2,2,0,0,0,2,2H40a2,2,0,0,0,2-2V30a2,2,0,0,0-2-2H34A2,2,0,0,0,32,30Z"/></svg>