<svg xmlns="http://www.w3.org/2000/svg" width="48" height="48" viewBox="0 0 48 48"><defs><style>.a{fill:#898989;}</style></defs><title>icon-copy</title><path class="a" d="M12.83,9.17,9.17,12.83A4,4,0,0,0,8,15.66V28a2,2,0,0,0,2,2H28a2,2,0,0,0,2-2V10a2,2,0,0,0-2-2H15.66A4,4,0,0,0,12.83,9.17ZM12,25V19a1,1,0,0,1,1-1h3a2,2,0,0,0,2-2V13a1,1,0,0,1,1-1h6a1,1,0,0,1,1,1V25a1,1,0,0,1-1,1H13A1,1,0,0,1,12,25Z"/><path class="a" d="M22,32v3a1,1,0,0,0,1,1H35a1,1,0,0,0,1-1V23a1,1,0,0,0-1-1H32V18h6a2,2,0,0,1,2,2V38a2,2,0,0,1-2,2H20a2,2,0,0,1-2-2V32Z"/></svg>